# AST/ASF file generated using VICON BodyLanguage
# -----------------------------------------------
:version 1.10
:name VICON
:units
  mass 1.0
  length 0.45
  angle deg
:documentation
   .ast/.asf automatically generated from VICON data using
   VICON BodyBuilder and BodyLanguage model FoxedUp or BRILLIANT.MOD
:root
   order TX TY TZ RX RY RZ
   axis XYZ
   position 0 0 0  
   orientation 0 0 0 
:bonedata
  begin
     id 1 
     name lhipjoint
     direction 0.521452 -0.77106 0.36545 
     length 2.0933 
     axis 0 0 0  XYZ
  end
  begin
     id 2 
     name lfemur
     direction 0.34202 -0.939693 0  
     length 6.83441  
     axis 0 0 20  XYZ
    dof rx ry rz
    limits (-160.0 20.0)
           (-70.0 70.0)
           (-60.0 70.0)
  end
  begin
     id 3 
     name ltibia
     direction 0.34202 -0.939693 0   
     length 7.28749   
     axis 0 0 20   XYZ
    dof rx
    limits (-10.0 170.0)
  end
  begin
     id 4 
     name lfoot
     direction 0.100608 -0.276418 0.955757   
     length 1.52195   
     axis -90 7.62852e-016 20   XYZ
    dof rx rz
    limits (-45.0 90.0)
           (-70.0 20.0)
  end
  begin
     id 5 
     name ltoes
     direction 1.53558e-011 -4.21907e-011 1   
     length 0.770459   
     axis -90 7.62852e-016 20   XYZ
    dof rx
    limits (-90.0 20.0)
  end
  begin
     id 6 
     name rhipjoint
     direction -0.488071 -0.788702 0.373812   
     length 2.04648  
     axis 0 0 0  XYZ 
  end
  begin
     id 7 
     name rfemur
     direction -0.34202 -0.939693 0   
     length 6.92583   
     axis 0 0 -20   XYZ
    dof rx ry rz
    limits (-160.0 20.0)
           (-70.0 70.0)
           (-70.0 60.0)
  end
  begin
     id 8 
     name rtibia
     direction -0.34202 -0.939693 0   
     length 7.41043   
     axis 0 0 -20   XYZ
    dof rx
    limits (-10.0 170.0)
 end
 begin
     id 9 
     name rfoot
     direction -0.0784433 -0.215521 0.973343   
     length 1.67708  
     axis -90 -7.62852e-016 -20   XYZ
    dof rx rz
    limits (-45.0 90.0)
           (-20.0 70.0)
  end
  begin
     id 10 
     name rtoes
     direction -1.53551e-011 -4.21842e-011 1   
     length 0.849787   
     axis -90 -7.62852e-016 -20   XYZ
    dof rx
    limits (-90.0 20.0)
  end
  begin
     id 11 
     name lowerback
     direction -0.0122332 0.997575 -0.0685192   
     length 1.98724   
     axis 0 0 0   XYZ
    dof rx ry rz
    limits (-20.0 45.0)
           (-30.0 30.0)
           (-30.0 30.0)
  end
  begin
     id 12 
     name upperback
     direction 0.0182347 0.999724 -0.0148421   
     length 1.99029   
     axis 0 0 0   XYZ
    dof rx ry rz
    limits (-20.0 45.0)
           (-30.0 30.0)
           (-30.0 30.0)
  end
  begin
     id 13 
     name thorax
     direction 0.0242908 0.99956 0.0170184   
     length 1.99573   
     axis 0 0 0   XYZ
    dof rx ry rz
    limits (-20.0 45.0)
           (-30.0 30.0)
           (-30.0 30.0)
  end
  begin
     id 14 
     name lowerneck
     direction 0.0654488 0.985533 0.156338   
     length 1.4285   
     axis 0 0 0   XYZ
    dof rx ry rz
    limits (-20.0 45.0)
           (-30.0 30.0)
           (-30.0 30.0)
  end
  begin
     id 15 
     name upperneck
     direction -0.02953 0.998556 -0.0448842   
     length 1.44709   
     axis 0 0 0   XYZ
    dof rx ry rz
    limits (-20.0 45.0)
           (-30.0 30.0)
           (-30.0 30.0)
  end
  begin
     id 16
     name head
     direction -0.0155588 0.999386 -0.0314063  
     length 1.44689  
     axis 0 0 0   XYZ
    dof rx ry rz
    limits (-20.0 45.0)
           (-30.0 30.0)
           (-30.0 30.0)
  end
  begin
     id 17 
     name lclavicle
     direction 0.968229 0.236071 -0.0824755  
     length 3.60593  
     axis 0 0 0   XYZ
    dof ry rz
    limits (-20.0 10.0)
           (0.0 20.0)
  end
  begin
     id 18 
     name lhumerus
     direction 1 -4.48968e-011 7.8138e-029   
     length 5.06035   
     axis 180 -30 -90   XYZ
    dof rx ry rz
    limits (-60.0 90.0)
           (-90.0 90.0)
           (-90.0 90.0)
  end
  begin
     id 19
     name lradius
     direction 1 -4.48967e-011 9.02887e-028   
     length 3.1478   
     axis 180 -30 -90   XYZ
    dof rx
    limits (-10.0 170.0)
  end
  begin
     id 20
     name lwrist
     direction 1 -4.48961e-011 7.20928e-028   
     length 1.5739   
     axis -5.52449e-016 90 90   XYZ
    dof ry
    limits (-180.0 0.0)
 end
  begin
     id 21 
     name lhand
     direction 1 -4.48972e-011 1.44186e-027   
     length 0.606747   
     axis -9.20027e-016 90 90   XYZ
    dof rx rz
    limits (-90.0 90.0)
           (-45.0 45.0)
  end
  begin
     id 22 
     name lfingers
     direction 1 -4.48943e-011 2.88371e-027   
     length 0.489175   
     axis -1.84005e-015 90 90   XYZ
    dof rx
    limits (0.0 90.0)
  end
  begin
     id 23
     name lthumb
     direction 0.707107 -6.34917e-011 0.707107   
     length 0.70236   
     axis -90 45 2.85299e-015   XYZ
    dof rx rz
    limits (-45.0 45.0)
           (-45.0 45.0)
  end
  begin
     id 24 
     name rclavicle
     direction -0.978165 0.207816 0.0022268   
     length 3.35425  
     axis 0 0 0   XYZ 
    dof ry rz
    limits (-10.0 20.0)
           (-20.0 0.0)
  end
  begin
     id 25 
     name rhumerus
     direction -1 -4.48964e-011 -4.02159e-027  
     length 5.12273   
     axis 180 30 90   XYZ
    dof rx ry rz
    limits (-90.0 60.0)
           (-90.0 90.0)
           (-90.0 90.0)
  end
  begin
     id 26 
     name rradius
     direction -1 -4.48966e-011 1.62746e-027   
     length 3.422   
     axis 180 30 90   XYZ
    dof rx
    limits (-10.0 170.0)
  end
  begin
     id 27 
     name rwrist
     direction -1 -4.4896e-011 7.20928e-028   
     length 1.711   
     axis -5.52449e-016 -90 -90   XYZ
    dof ry
    limits (-180.0 0.0)
  end
  begin
     id 28
     name rhand
     direction -1 -4.48979e-011 1.44186e-027   
     length 0.704599   
     axis -9.20027e-016 -90 -90   XYZ
    dof rx rz
    limits (-90.0 90.0)
           (-45.0 45.0)
  end
  begin
     id 29
     name rfingers
     direction -1 -4.48962e-011 2.88371e-027   
     length 0.568066   
     axis -1.84005e-015 -90 -90   XYZ
    dof rx
    limits (0.0 90.0)
  end
  begin
     id 30
     name rthumb
     direction -0.707107 -6.34949e-011 0.707107   
     length 0.815633   
     axis -90 -45 -2.85299e-015   XYZ
    dof rx rz
    limits (-45.0 45.0)
           (-45.0 45.0)
  end
:hierarchy
  begin
    root lhipjoint rhipjoint lowerback
    lhipjoint lfemur
    lfemur ltibia
    ltibia lfoot
    lfoot ltoes
    rhipjoint rfemur
    rfemur rtibia
    rtibia rfoot
    rfoot rtoes
    lowerback upperback
    upperback thorax
    thorax lowerneck lclavicle rclavicle
    lowerneck upperneck
    upperneck head
    lclavicle lhumerus
    lhumerus lradius
    lradius lwrist
    lwrist lhand lthumb
    lhand lfingers
    rclavicle rhumerus
    rhumerus rradius
    rradius rwrist
    rwrist rhand rthumb
    rhand rfingers
  end

#!OML:ASF E:\id_vita\Project 1\Capture day 1\Session 1\Male1.ASF
:FULLY-SPECIFIED
:DEGREES
580
root -11.8491 13.3373 -7.26726 -57.5937 81.86 -102.071
lowerback 34.2311 0.742968 -4.07019
upperback 5.62954 -0.0585638 -0.886642
thorax -11.157 0.316814 1.20473
lowerneck -9.28825 2.30156 -2.39298
upperneck 0.842705 3.21996 10.7465
head 1.70339 1.9799 4.13777
rclavicle -1.59028e-014 -7.95139e-015
rhumerus 69.4925 13.4246 -57.4793
rradius 22.8585
rwrist 15.8063
rhand -44.877 267.057
rfingers 7.12502
rthumb -17.6653 63.7259
lclavicle -1.59028e-014 -7.95139e-015
lhumerus 73.7199 1.16793 69.2991
lradius 11.6456
lwrist -60.1357
lhand -37.1683 75.6968
lfingers 7.12502
lthumb -10.237 -105.428
rfemur -24.4005 1.93735 26.5448
rtibia 35.8398
rfoot -42.7502 -23.2642
rtoes -12.0724
lfemur -98.5546 12.4564 -14.0997
ltibia 79.5146
lfoot -28.8217 1.83297
ltoes -3.89969
581
root -11.7681 13.3192 -7.29275 -57.0501 81.6471 -101.605
lowerback 34.0806 0.831738 -4.1436
upperback 5.6558 0.0456884 -0.778739
thorax -11.0732 0.363266 1.32002
lowerneck -9.40852 2.29195 -2.36153
upperneck 0.882097 3.19956 10.6246
head 1.74138 1.96964 4.09198
rclavicle 9.54166e-015 -6.75868e-015
rhumerus 69.4056 13.3772 -57.303
rradius 23.2615
rwrist 15.4798
rhand -44.858 267.846
rfingers 7.12502
rthumb -17.647 62.9344
lclavicle 9.54166e-015 -6.75868e-015
lhumerus 73.9061 1.19413 69.2404
lradius 11.7091
lwrist -60.0924
lhand -37.1483 75.874
lfingers 7.12502
lthumb -10.2177 -105.606
rfemur -23.9153 1.97152 26.5606
rtibia 35.3854
rfoot -42.3924 -23.3251
rtoes -12.5656
lfemur -98.6866 12.9017 -14.4987
ltibia 80.0292
lfoot -29.4162 1.46952
ltoes -4.18521
582
root -11.6894 13.3026 -7.33569 -55.4736 81.3887 -99.8513
lowerback 34.4075 0.983248 -4.16522
upperback 5.64369 0.222381 -0.695185
thorax -11.2215 0.446644 1.34765
lowerneck -9.46552 2.28355 -2.36224
upperneck 0.881836 3.18767 10.4427
head 1.75402 1.95815 4.02823
rclavicle 1.43125e-014 7.95139e-015
rhumerus 69.4203 13.3021 -57.072
rradius 23.4234
rwrist 15.378
rhand -44.9215 268.436
rfingers 7.12502
rthumb -17.7081 62.3505
lclavicle 1.43125e-014 7.95139e-015
lhumerus 74.1433 1.24839 69.4837
lradius 11.621
lwrist -60.3057
lhand -37.2036 76.3391
lfingers 7.12502
lthumb -10.2711 -106.068
rfemur -23.204 2.15928 26.4057
rtibia 35.0027
rfoot -42.4636 -22.807
rtoes -10.9463
lfemur -98.442 13.2626 -14.7023
ltibia 80.5426
lfoot -29.948 1.46071
ltoes -4.36408
583
root -11.601 13.2805 -7.349 -56.1218 81.5594 -100.823
lowerback 33.8388 0.9755 -4.37529
upperback 5.68353 0.175078 -0.607085
thorax -10.9525 0.424858 1.57917
lowerneck -9.60041 2.2684 -2.43007
upperneck 0.980245 3.16437 10.4601
head 1.81246 1.95194 4.05377
rclavicle 1.43125e-014 1.19271e-014
rhumerus 69.5656 13.0886 -57.3777
rradius 23.1205
rwrist 15.7969
rhand -45.091 268.099
rfingers 7.12502
rthumb -17.8712 62.702
lclavicle 1.43125e-014 1.19271e-014
lhumerus 74.3828 1.31455 70.0517
lradius 11.5368
lwrist -60.9719
lhand -37.3518 76.2292
lfingers 7.12502
lthumb -10.414 -105.951
rfemur -22.8675 2.78858 26.0421
rtibia 34.6749
rfoot -43.2043 -21.0311
rtoes -6.15223
lfemur -98.7404 13.2721 -15.2105
ltibia 81.0139
lfoot -30.4475 1.13692
ltoes -3.85283
584
root -11.5177 13.2576 -7.3692 -56.6431 81.7892 -101.598
lowerback 33.4013 0.914944 -4.53771
upperback 5.6962 0.0628062 -0.602637
thorax -10.7591 0.373526 1.71879
lowerneck -9.66676 2.22497 -2.61479
upperneck 1.17265 3.10362 10.7487
head 1.88967 1.9354 4.19887
rclavicle 2.06736e-014 1.59028e-014
rhumerus 69.6854 12.9007 -57.9556
rradius 22.7867
rwrist 16.3071
rhand -45.1688 267.587
rfingers 7.12502
rthumb -17.9461 63.2209
lclavicle 2.06736e-014 1.59028e-014
lhumerus 74.5385 1.43874 70.6945
lradius 11.5317
lwrist -61.8264
lhand -37.4406 75.7575
lfingers 7.12502
lthumb -10.4997 -105.475
rfemur -22.5209 3.36371 25.5194
rtibia 34.3458
rfoot -43.9858 -18.72
rtoes -2.03569
lfemur -98.9383 13.1494 -15.7279
ltibia 81.4323
lfoot -30.7942 0.983559
ltoes -3.0728
585
root -11.4336 13.2379 -7.3973 -56.9819 81.9871 -101.957
lowerback 33.3444 0.813608 -4.60165
upperback 5.68242 -0.0922829 -0.678436
thorax -10.7421 0.305186 1.73198
lowerneck -9.56349 2.22137 -2.58769
upperneck 1.1775 3.09421 10.8279
head 1.87265 1.93096 4.2186
rclavicle 3.18055e-015 -2.5842e-014
rhumerus 69.6885 12.7879 -58.7238
rradius 22.617
rwrist 16.8276
rhand -45.2949 267.635
rfingers 7.12502
rthumb -18.0674 63.1841
lclavicle 3.18055e-015 -2.5842e-014
lhumerus 74.7176 1.64684 71.4115
lradius 11.4636
lwrist -62.8001
lhand -37.4193 75.6367
lfingers 7.12502
lthumb -10.4791 -105.355
rfemur -22.0319 3.52248 25.1009
rtibia 33.9673
rfoot -43.7968 -18.5204
rtoes -1.91259
lfemur -98.8519 12.9869 -16.2011
ltibia 81.8133
lfoot -31.229 1.24553
ltoes -3.04646
586
root -11.348 13.2305 -7.43462 -58.1297 81.9972 -102.801
lowerback 33.8372 0.666488 -4.37794
upperback 5.61674 -0.229141 -0.732356
thorax -11.0052 0.244995 1.60379
lowerneck -9.39194 2.26431 -2.32486
upperneck 1.2035 3.12339 10.6128
head 1.85133 1.9358 4.08593
rclavicle 1.59028e-014 -6.75868e-015
rhumerus 69.2759 12.5735 -60.5064
rradius 22.524
rwrist 18.3584
rhand -45.2305 268.302
rfingers 7.12502
rthumb -18.0055 62.5113
lclavicle 1.59028e-014 -6.75868e-015
lhumerus 74.7444 1.7506 71.7876
lradius 11.428
lwrist -63.3601
lhand -37.424 75.3002
lfingers 7.12502
lthumb -10.4837 -105.019
rfemur -21.2722 3.34002 24.9934
rtibia 33.5887
rfoot -43.0528 -19.1004
rtoes -3.23044
lfemur -98.366 12.8146 -16.4053
ltibia 82.2074
lfoot -31.737 1.49446
ltoes -2.96064
587
root -11.2565 13.2246 -7.4595 -59.9201 82.062 -104.365
lowerback 34.0869 0.581771 -4.31753
upperback 5.59765 -0.313567 -0.664747
thorax -11.1203 0.210095 1.6748
lowerneck -9.40823 2.26476 -2.23672
upperneck 1.48368 3.08691 10.4962
head 1.95201 1.91934 4.03381
rclavicle 1.90833e-014 8.74653e-015
rhumerus 69.6516 12.4846 -60.9727
rradius 21.6285
rwrist 18.5893
rhand -44.9389 268.653
rfingers 7.12502
rthumb -17.7249 62.1344
lclavicle 1.90833e-014 8.74653e-015
lhumerus 74.7423 1.7857 72.2993
lradius 11.4318
lwrist -63.8618
lhand -37.4799 74.9674
lfingers 7.12502
lthumb -10.5376 -104.683
rfemur -20.4756 3.31565 24.8837
rtibia 33.1774
rfoot -42.6124 -18.729
rtoes -2.82074
lfemur -97.9384 12.7235 -16.6874
ltibia 82.6347
lfoot -32.1657 1.10205
ltoes -1.34718
588
root -11.1802 13.2032 -7.46402 -54.5871 81.7694 -99.6186
lowerback 33.0834 0.969313 -4.88358
upperback 5.55841 0.00282455 -0.649446
thorax -10.7794 0.352685 1.87997
lowerneck -9.58675 2.25332 -2.28353
upperneck 1.68229 3.05648 10.5239
head 2.05312 1.91336 4.06313
rclavicle 1.43125e-014 -1.15295e-014
rhumerus 69.8871 12.3641 -61.1007
rradius 21.3263
rwrist 18.1917
rhand -44.7269 268.735
rfingers 7.12502
rthumb -17.5209 62.0346
lclavicle 1.43125e-014 -1.15295e-014
lhumerus 74.9056 1.90754 73.1684
lradius 11.4563
lwrist -64.7141
lhand -37.5051 74.5881
lfingers 7.12502
lthumb -10.5619 -104.303
rfemur -20.6231 4.60929 24.5743
rtibia 32.808
rfoot -42.26 -17.9428
rtoes -1.82935
lfemur -98.5638 13.7287 -17.2
ltibia 83.1881
lfoot -32.6616 0.282805
ltoes 1.02714
589
root -11.0978 13.1779 -7.48842 -53.2131 81.818 -98.4452
lowerback 32.7217 0.988242 -4.96055
upperback 5.52963 0.00313011 -0.716177
thorax -10.6665 0.349393 1.85384
lowerneck -9.56614 2.23013 -2.28354
upperneck 1.6872 3.02332 10.5973
head 2.053 1.89908 4.08769
rclavicle -4.77083e-015 2.90226e-014
rhumerus 69.9144 12.2856 -61.0354
rradius 21.2011
rwrist 18.0731
rhand -44.9809 267.883
rfingers 7.12502
rthumb -17.7653 62.9082
lclavicle -4.77083e-015 2.90226e-014
lhumerus 75.0058 1.96817 73.7321
lradius 11.4913
lwrist -65.3197
lhand -37.5514 74.0536
lfingers 7.12502
lthumb -10.6065 -103.766
rfemur -20.2858 5.32048 24.1929
rtibia 32.4402
rfoot -41.827 -17.9912
rtoes -2.58164
lfemur -98.7054 13.9063 -17.6078
ltibia 83.7537
lfoot -33.4015 -0.358217
ltoes 3.75676
